PathFileType	4	(X/Y/Z)	C:\Users\°ÂÌØÂü\Desktop\20210112\bx_n_5_502-Unnamed.trc
DataRate	CameraRate	NumFrames	NumMarkers	Units	OrigDataRate	OrigDataStartFrame	OrigNumFrames
50.00	50.00	       4	0	mm	50.00	62	       489
Frame#	Time	
		

62	1.220	-542.88654	-59.60983	1502.10730	-647.43646	241.29544	1060.15210				-732.73273	285.87085	874.49689	-631.19214	-5.48686	810.19440	-632.84924	223.53612	796.00446	-733.27032	274.02106	743.15472	-757.16327	252.88219	640.38367	-717.17554	75.50701	574.22070	-685.47778	17.82503	523.36212	-754.31140	248.68062	574.82178	-698.00220	207.05461	536.88293				-715.10938	154.46298	218.35234	-769.79828	228.10651	204.68089	-882.43616	296.14734	144.72641	-674.69312	53.94843	159.56091	-675.81604	171.96080	159.24896	-592.79834	217.58369	174.36176	-660.20929	297.50803	157.31857	-623.80945	306.00061	159.14253	-556.06134	255.11238	164.90817	-528.12799	304.54727	146.78020	-409.43286	140.45007	1778.91162	-568.77069	300.32315	1493.91455	-789.84863	259.58487	499.30936	-517.82458	-72.96061	143.39194	-549.47461	-25.31046	164.49191	-544.66425	110.55795	1301.64807	-843.02191	95.56677	1072.51624	-794.15063	37.62382	174.49670	-796.13623	179.27122	183.47237	-775.15900	-45.22305	487.41849	-600.58228	28.61173	167.01318	-760.40863	-20.62172	206.37523	-876.00275	-78.74174	141.50209				-737.06451	-32.39136	569.75958	-606.21393	-71.80293	158.56816	-648.68146	-66.71157	162.50621	-723.80231	-61.18181	758.98590				-716.94867	144.93877	576.04547	-721.47632	69.33591	216.66068	-712.22375	-72.33445	875.16022	-733.74878	-34.91255	617.23309	
63	1.240	-533.51886	-59.25434	1495.87000	-651.47491	241.40608	1059.28186	-648.09265	-5.78752	1048.71057	-737.42914	286.22183	874.73914	-635.19641	-5.70660	810.28052	-636.72577	223.87196	796.67303	-737.11823	274.30884	742.62482	-759.74280	253.18491	640.23645	-719.87335	75.45601	574.32916	-687.94983	17.69781	523.79688	-756.79950	248.72523	574.52246	-700.34900	206.81310	536.95032				-715.18225	154.52187	218.59251	-769.79724	227.97934	204.28615	-882.53467	296.29968	144.81888	-674.94897	53.83897	159.64209	-675.89081	172.45100	158.96661	-592.71735	217.38605	174.53763	-660.34833	297.58279	157.46907	-623.76752	306.10632	159.09230	-556.01270	255.03101	164.89314	-527.91675	304.31320	146.82397	-395.73706	140.48779	1770.16016	-559.76587	300.04465	1487.80579	-791.54816	259.68158	498.96542	-517.90961	-72.87302	143.22429	-549.52191	-24.88449	164.39915	-541.48938	110.40629	1295.33801	-846.80084	95.42889	1073.62927	-794.48328	37.32813	174.22552	-796.48584	179.44714	183.41260	-777.21045	-45.37013	487.08710	-600.65961	28.47854	167.05861	-760.61578	-21.07646	206.32063	-875.85522	-78.73365	141.22168				-739.84729	-32.32044	569.75928	-606.21393	-71.80293	158.56816	-648.70679	-66.88479	162.25981	-728.21185	-59.79381	758.05743				-719.58960	145.19992	575.85712	-721.83289	68.89996	216.92436	-716.70166	-72.46648	875.20514	-736.54535	-34.75893	616.60876	
64	1.260	-523.97736	-58.84120	1488.92847	-655.95319	241.38008	1058.92407	-652.24963	-5.60696	1047.25049	-741.83795	285.92990	874.28003	-639.60065	-5.86578	811.12317				-740.34283	275.16721	743.23267	-762.58490	253.54572	640.11926	-723.03046	75.27556	574.66681	-690.36371	17.37541	524.38599	-759.26819	248.94093	574.44012	-702.15753	207.06975	537.22168	-641.10919	223.34630	796.11554	-715.28204	154.96725	218.60263	-769.83832	228.24353	204.22704	-882.53467	296.29968	144.81888	-675.22583	53.58247	159.97910	-675.71576	172.14873	159.29718	-592.77539	217.42328	174.45331	-660.08929	297.49200	157.20561	-623.52100	306.02710	159.21465	-556.10785	254.81706	164.52400	-527.96710	304.05585	146.45801	-381.77301	140.62759	1760.66602	-551.43463	299.67078	1481.93567	-793.63007	259.84116	498.27667	-517.85541	-73.05684	143.08588	-549.59344	-24.56020	163.98506	-538.03119	110.00771	1288.83801	-850.45160	95.42383	1074.97949	-794.70111	36.99170	174.16595	-796.66211	179.46292	183.61185	-779.76758	-45.69817	487.05499	-600.76428	28.53524	167.09415	-760.67255	-21.05603	206.22076	-875.42639	-78.90865	141.14519				-742.51697	-32.88855	570.11786	-606.34106	-71.80009	158.18492	-648.77222	-66.98582	162.22792	-732.18048	-60.39651	758.14795				-722.24121	144.77307	576.09760	-722.81134	68.08282	216.84749	-721.21051	-73.01988	875.05750	-739.62524	-35.03093	616.86884	
65	1.280	-513.81488	-58.69480	1481.01843	-660.35443	241.44547	1058.23315	-655.76099	-5.37553	1045.84534	-746.00763	286.48944	874.64087	-643.78625	-5.05680	809.73749				-743.93018	274.85873	742.38385	-765.52722	253.32639	639.51196	-725.74988	75.29379	574.37170	-693.08051	17.35182	524.41650	-761.46002	248.60303	574.09857	-705.04840	206.84418	537.05511	-644.52155	223.37550	796.98175	-715.70331	154.99767	218.41333	-770.22919	228.30008	204.24840	-882.56537	296.31970	144.85590	-675.50958	53.43207	160.07869	-675.65961	172.19328	159.61656	-592.89795	217.39249	174.19731	-660.15033	297.58386	157.15741	-623.70068	306.08154	159.15054	-556.15649	254.77415	164.46976	-527.93005	304.07898	146.57883	-368.08237	140.43874	1749.97217	-542.79340	298.33789	1473.77026	-795.07202	259.97668	497.81265	-517.90961	-72.87302	143.22429	-549.62952	-24.26136	163.69986	-534.38721	110.23679	1281.47729	-854.27722	95.31067	1075.94849	-794.63635	36.80046	174.13287	-796.76697	179.42017	183.32434	-781.50140	-46.07363	486.88327	-600.76428	28.53524	167.09415	-760.56171	-21.56401	206.26353	-875.66077	-78.87421	141.36049				-745.33276	-32.69534	569.85718	-606.01129	-71.80537	158.36835	-648.69531	-67.01902	162.27705	-735.87134	-60.73286	758.13586				-724.89063	145.09604	575.79272	-723.02399	67.86730	216.56732	-725.27417	-73.04962	875.01807	-742.52789	-35.16849	616.68945	
